D:\school\WTK\thesis\model\3dpredictsim\Results\MuscleModel\Fal_s1_bCst_ig24_v2_GRF.mot
nRows=17
nColumns=19

name D:\school\WTK\thesis\model\3dpredictsim\Results\MuscleModel\Fal_s1_bCst_ig24_v2_GRF.mot
datacolumns 19
datarows 17
range 0.5538133627 0.7310336387
endheader
time 	ground_force_vx	ground_force_vy	ground_force_vz	ground_force_px	ground_force_py	ground_force_pz	1_ground_force_vx	1_ground_force_vy	1_ground_force_vz	1_ground_force_px	1_ground_force_py	1_ground_force_pz	ground_torque_x	ground_torque_y	ground_torque_z	1_ground_torque_x	1_ground_torque_y	1_ground_torque_z
        0.5538133627	       97.0829711176	      536.2369028184	        0.8477352653	        0.3878431519	        0.0000000000	        0.0387099975	      -48.1774561387	       38.0711007540	      -15.2849339593	        0.8751308355	        0.0000000000	       -0.0412733299	        0.0000000000	        0.0000000000	        0.0000000000	        0.0000000000	        0.0000000000	        0.0000000000	
        0.5648896299	       88.1735899014	      475.1514124707	        3.6144492977	        0.3901422577	        0.0000000000	        0.0382220799	      -85.9609339186	       94.4322662996	      -46.4506522619	        0.8828001344	        0.0000000000	       -0.0390002230	        0.0000000000	        0.0000000000	        0.0000000000	        0.0000000000	        0.0000000000	        0.0000000000	
        0.5759658972	       76.3570145149	      399.2402372954	        5.4555234245	        0.3935488715	        0.0000000000	        0.0372627321	      -36.1477087622	      203.5619374793	      -29.6080372779	        0.8875856179	        0.0000000000	       -0.0368285798	        0.0000000000	        0.0000000000	        0.0000000000	        0.0000000000	        0.0000000000	        0.0000000000	
        0.5870421644	       62.1575394948	      322.6618862976	        3.6932967645	        0.3983898130	        0.0000000000	        0.0355737780	      -31.4261784242	      324.3758196779	       -3.5762455490	        0.8898482482	        0.0000000000	       -0.0362169021	        0.0000000000	        0.0000000000	        0.0000000000	        0.0000000000	        0.0000000000	        0.0000000000	
        0.5981184317	       38.1364533250	      237.1487702613	        4.1506255487	        0.4063773174	        0.0000000000	        0.0323701537	      -44.3441545298	      447.1822123385	        2.3401529654	        0.8931671362	        0.0000000000	       -0.0368995865	        0.0000000000	        0.0000000000	        0.0000000000	        0.0000000000	        0.0000000000	        0.0000000000	
        0.6091946990	       16.3794708538	      154.9546573127	        6.5626157138	        0.4202461101	        0.0000000000	        0.0260331616	      -69.3924259812	      583.8028085576	        7.6709393456	        0.9007024010	        0.0000000000	       -0.0392702128	        0.0000000000	        0.0000000000	        0.0000000000	        0.0000000000	        0.0000000000	        0.0000000000	
        0.6202709662	        5.5227869449	      118.8351075420	        8.6833400522	        0.4263714103	        0.0000000000	        0.0228997003	      -86.7497202271	      687.7117407621	       11.1562738253	        0.9068232431	        0.0000000000	       -0.0411395686	        0.0000000000	        0.0000000000	        0.0000000000	        0.0000000000	        0.0000000000	        0.0000000000	
        0.6313472335	        3.0304953629	       89.8761792411	        9.3049350158	        0.4268638427	        0.0000000000	        0.0229882889	      -91.8790804403	      734.4258144048	       12.4950743452	        0.9112895826	        0.0000000000	       -0.0423998846	        0.0000000000	        0.0000000000	        0.0000000000	        0.0000000000	        0.0000000000	        0.0000000000	
        0.6424235007	       -1.8920876474	       56.8159988694	        8.7927870067	        0.4272260949	        0.0000000000	        0.0230555031	      -88.3840686371	      741.2742827383	       13.1035395569	        0.9147641935	        0.0000000000	       -0.0432366227	        0.0000000000	        0.0000000000	        0.0000000000	        0.0000000000	        0.0000000000	        0.0000000000	
        0.6534997680	       -7.0811857162	       21.9787558081	        4.2757673254	        0.4268926562	        0.0000000000	        0.0227812583	      -81.9777538321	      731.5613416634	       12.4510438550	        0.9180135297	        0.0000000000	       -0.0437883847	        0.0000000000	        0.0000000000	        0.0000000000	        0.0000000000	        0.0000000000	        0.0000000000	
        0.6645760352	        0.1120910111	       -0.1100073054	       -0.0040199101	        0.0000000000	        0.0000000000	        0.0000000000	      -74.2791476795	      720.7412010866	       12.7993811771	        0.9215463413	        0.0000000000	       -0.0440702158	        0.0000000000	        0.0000000000	        0.0000000000	        0.0000000000	        0.0000000000	        0.0000000000	
        0.6756523025	        0.0008575950	       -0.0006929293	        0.0000230761	        0.0000000000	        0.0000000000	        0.0000000000	      -65.0878820513	      703.1746843211	       13.4816892239	        0.9253897874	        0.0000000000	       -0.0442214488	        0.0000000000	        0.0000000000	        0.0000000000	        0.0000000000	        0.0000000000	        0.0000000000	
        0.6867285697	        0.0004322917	       -0.0003019131	        0.0000197694	        0.0000000000	        0.0000000000	        0.0000000000	      -58.4678550883	      685.9997158090	       14.5135398877	        0.9303420206	        0.0000000000	       -0.0441755246	        0.0000000000	        0.0000000000	        0.0000000000	        0.0000000000	        0.0000000000	        0.0000000000	
        0.6978048370	        0.0043345605	       -0.0027080816	        0.0002398258	        0.0000000000	        0.0000000000	        0.0000000000	      -52.5259865618	      667.6048010326	       15.5226739532	        0.9357218297	        0.0000000000	       -0.0440278066	        0.0000000000	        0.0000000000	        0.0000000000	        0.0000000000	        0.0000000000	        0.0000000000	
        0.7088811042	       -0.0236240201	        0.0134927451	       -0.0014759780	        0.0000000000	        0.0000000000	        0.0000000000	      -46.0132133310	      645.9981516548	       16.4738349309	        0.9407519869	        0.0000000000	       -0.0439395092	        0.0000000000	        0.0000000000	        0.0000000000	        0.0000000000	        0.0000000000	        0.0000000000	
        0.7199573715	       -0.0377097226	        0.0199712673	       -0.0025865219	        0.0000000000	        0.0000000000	        0.0000000000	      -39.3884064859	      624.2177492593	       17.1956873834	        0.9454028078	        0.0000000000	       -0.0439273420	        0.0000000000	        0.0000000000	        0.0000000000	        0.0000000000	        0.0000000000	        0.0000000000	
        0.7310336387	       -0.0244494249	        0.0121475858	       -0.0018074551	        0.0000000000	        0.0000000000	        0.0000000000	      -33.2731114618	      604.5463200463	       17.8657614319	        0.9499137405	        0.0000000000	       -0.0439615645	        0.0000000000	        0.0000000000	        0.0000000000	        0.0000000000	        0.0000000000	        0.0000000000	
